<?xml version="1.0" standalone="no"?>
<!DOCTYPE svg PUBLIC "-//W3C//DTD SVG 20010904//EN"
 "http://www.w3.org/TR/2001/REC-SVG-20010904/DTD/svg10.dtd">
<svg version="1.0" xmlns="http://www.w3.org/2000/svg"
 width="1000.000000pt" height="1000.000000pt" viewBox="0 0 1000.000000 1000.000000"
 preserveAspectRatio="xMidYMid meet">
<metadata>
Created by potrace 1.11, written by Peter Selinger 2001-2013
</metadata>
<g transform="translate(0.000000,1000.000000) scale(0.100000,-0.100000)"
fill="#000000" stroke="none">
<path d="M4660 9989 c-1546 -102 -2967 -928 -3827 -2224 -662 -997 -942 -2192
-793 -3385 205 -1640 1215 -3076 2695 -3830 1699 -865 3765 -677 5286 481 641
489 1177 1155 1509 1879 820 1784 528 3866 -751 5355 -129 151 -379 400 -529
529 -995 852 -2284 1281 -3590 1195z m-1575 -2443 c104 -27 189 -87 259 -180
24 -32 408 -749 852 -1592 445 -843 811 -1533 814 -1533 3 0 356 668 785 1486
429 817 798 1518 819 1557 24 44 68 100 115 147 89 89 151 118 271 126 207 15
380 -100 446 -297 18 -53 19 -140 22 -2210 2 -1405 -1 -2184 -7 -2239 -6 -49
-21 -106 -36 -140 -34 -75 -113 -152 -189 -188 -57 -26 -70 -28 -186 -28 -121
0 -128 1 -192 33 -79 39 -129 92 -172 181 l-31 66 -5 1539 -5 1538 -609 -1148
c-335 -632 -628 -1178 -651 -1214 -102 -159 -230 -240 -380 -240 -65 0 -159
24 -210 54 -61 36 -137 119 -187 204 -25 43 -317 578 -649 1191 l-604 1115 -5
-1510 c-4 -1352 -7 -1513 -21 -1551 -43 -111 -111 -186 -208 -231 -45 -21 -76
-27 -152 -30 -168 -7 -285 45 -359 159 -75 116 -70 -57 -70 2378 0 1553 3
2195 11 2233 34 163 149 285 304 324 67 17 169 17 230 0z"/>
</g>
</svg>
